<mxfile host="app.diagrams.net" agent="Mozilla/5.0 (Windows NT 10.0; Win64; x64) AppleWebKit/537.36 (KHTML, like Gecko) Chrome/127.0.0.0 Safari/537.36" version="24.7.6">
  <diagram id="prtHgNgQTEPvFCAcTncT" name="Page-1">
    <mxGraphModel dx="3033" dy="1206" grid="1" gridSize="10" guides="1" tooltips="1" connect="1" arrows="1" fold="1" page="1" pageScale="1" pageWidth="827" pageHeight="1169" math="0" shadow="0">
      <root>
        <mxCell id="0" />
        <mxCell id="1" parent="0" />
        <mxCell id="HWYvdIPogjPDE-Yno99K-1" value="台账生成流" style="swimlane;childLayout=stackLayout;resizeParent=1;resizeParentMax=0;startSize=20;horizontal=0;horizontalStack=1;" vertex="1" parent="1">
          <mxGeometry x="-110" y="200" width="1810" height="1070" as="geometry">
            <mxRectangle x="10" y="300" width="40" height="50" as="alternateBounds" />
          </mxGeometry>
        </mxCell>
        <mxCell id="HWYvdIPogjPDE-Yno99K-2" value="财务操作" style="swimlane;startSize=20;" vertex="1" parent="HWYvdIPogjPDE-Yno99K-1">
          <mxGeometry x="20" width="330" height="1070" as="geometry" />
        </mxCell>
        <mxCell id="HWYvdIPogjPDE-Yno99K-12" value="" style="shape=actor;whiteSpace=wrap;html=1;" vertex="1" parent="HWYvdIPogjPDE-Yno99K-2">
          <mxGeometry x="90" y="60" width="40" height="60" as="geometry" />
        </mxCell>
        <mxCell id="HWYvdIPogjPDE-Yno99K-69" value="" style="shape=actor;whiteSpace=wrap;html=1;" vertex="1" parent="HWYvdIPogjPDE-Yno99K-2">
          <mxGeometry x="90" y="920" width="40" height="60" as="geometry" />
        </mxCell>
        <mxCell id="HWYvdIPogjPDE-Yno99K-3" value="自动化功能" style="swimlane;startSize=20;" vertex="1" parent="HWYvdIPogjPDE-Yno99K-1">
          <mxGeometry x="350" width="1120" height="1070" as="geometry" />
        </mxCell>
        <mxCell id="HWYvdIPogjPDE-Yno99K-20" style="edgeStyle=orthogonalEdgeStyle;rounded=0;orthogonalLoop=1;jettySize=auto;html=1;exitX=0.5;exitY=1;exitDx=0;exitDy=0;exitPerimeter=0;entryX=1;entryY=0.5;entryDx=0;entryDy=0;" edge="1" parent="HWYvdIPogjPDE-Yno99K-3" source="HWYvdIPogjPDE-Yno99K-5" target="HWYvdIPogjPDE-Yno99K-17">
          <mxGeometry relative="1" as="geometry" />
        </mxCell>
        <mxCell id="HWYvdIPogjPDE-Yno99K-5" value="关务报关数据" style="shape=cylinder3;whiteSpace=wrap;html=1;boundedLbl=1;backgroundOutline=1;size=15;fillColor=#f8cecc;strokeColor=#b85450;" vertex="1" parent="HWYvdIPogjPDE-Yno99K-3">
          <mxGeometry x="670" y="40" width="60" height="100" as="geometry" />
        </mxCell>
        <mxCell id="HWYvdIPogjPDE-Yno99K-47" style="edgeStyle=orthogonalEdgeStyle;rounded=0;orthogonalLoop=1;jettySize=auto;html=1;exitX=0.5;exitY=1;exitDx=0;exitDy=0;exitPerimeter=0;entryX=1;entryY=0.5;entryDx=0;entryDy=0;" edge="1" parent="HWYvdIPogjPDE-Yno99K-3" source="HWYvdIPogjPDE-Yno99K-6" target="HWYvdIPogjPDE-Yno99K-43">
          <mxGeometry relative="1" as="geometry" />
        </mxCell>
        <mxCell id="HWYvdIPogjPDE-Yno99K-59" style="edgeStyle=orthogonalEdgeStyle;rounded=0;orthogonalLoop=1;jettySize=auto;html=1;exitX=0.5;exitY=1;exitDx=0;exitDy=0;exitPerimeter=0;entryX=1;entryY=0.5;entryDx=0;entryDy=0;" edge="1" parent="HWYvdIPogjPDE-Yno99K-3" source="HWYvdIPogjPDE-Yno99K-6" target="HWYvdIPogjPDE-Yno99K-53">
          <mxGeometry relative="1" as="geometry" />
        </mxCell>
        <mxCell id="HWYvdIPogjPDE-Yno99K-6" value="采购开票数据" style="shape=cylinder3;whiteSpace=wrap;html=1;boundedLbl=1;backgroundOutline=1;size=15;fillColor=#f8cecc;strokeColor=#b85450;" vertex="1" parent="HWYvdIPogjPDE-Yno99K-3">
          <mxGeometry x="770" y="40" width="60" height="100" as="geometry" />
        </mxCell>
        <mxCell id="HWYvdIPogjPDE-Yno99K-16" value="" style="edgeStyle=orthogonalEdgeStyle;rounded=0;orthogonalLoop=1;jettySize=auto;html=1;entryX=0.5;entryY=0;entryDx=0;entryDy=0;" edge="1" parent="HWYvdIPogjPDE-Yno99K-3" source="HWYvdIPogjPDE-Yno99K-10" target="HWYvdIPogjPDE-Yno99K-23">
          <mxGeometry relative="1" as="geometry">
            <mxPoint x="355" y="160" as="targetPoint" />
          </mxGeometry>
        </mxCell>
        <mxCell id="HWYvdIPogjPDE-Yno99K-10" value="台账数据" style="rounded=1;whiteSpace=wrap;html=1;" vertex="1" parent="HWYvdIPogjPDE-Yno99K-3">
          <mxGeometry x="360" y="130" width="120" height="60" as="geometry" />
        </mxCell>
        <mxCell id="HWYvdIPogjPDE-Yno99K-11" value="" style="group" vertex="1" connectable="0" parent="HWYvdIPogjPDE-Yno99K-3">
          <mxGeometry x="40" y="40" width="180" height="100" as="geometry" />
        </mxCell>
        <mxCell id="HWYvdIPogjPDE-Yno99K-7" value="发票认证数据" style="shape=cylinder3;whiteSpace=wrap;html=1;boundedLbl=1;backgroundOutline=1;size=15;fillColor=#d5e8d4;strokeColor=#82b366;" vertex="1" parent="HWYvdIPogjPDE-Yno99K-11">
          <mxGeometry width="60" height="100" as="geometry" />
        </mxCell>
        <mxCell id="HWYvdIPogjPDE-Yno99K-8" value="全量发票数据" style="shape=cylinder3;whiteSpace=wrap;html=1;boundedLbl=1;backgroundOutline=1;size=15;fillColor=#d5e8d4;strokeColor=#82b366;" vertex="1" parent="HWYvdIPogjPDE-Yno99K-11">
          <mxGeometry x="60" width="60" height="100" as="geometry" />
        </mxCell>
        <mxCell id="HWYvdIPogjPDE-Yno99K-9" value="出口报关单数据" style="shape=cylinder3;whiteSpace=wrap;html=1;boundedLbl=1;backgroundOutline=1;size=15;fillColor=#d5e8d4;strokeColor=#82b366;" vertex="1" parent="HWYvdIPogjPDE-Yno99K-11">
          <mxGeometry x="120" width="60" height="100" as="geometry" />
        </mxCell>
        <mxCell id="HWYvdIPogjPDE-Yno99K-22" value="" style="edgeStyle=orthogonalEdgeStyle;rounded=0;orthogonalLoop=1;jettySize=auto;html=1;" edge="1" parent="HWYvdIPogjPDE-Yno99K-3" source="HWYvdIPogjPDE-Yno99K-17" target="HWYvdIPogjPDE-Yno99K-21">
          <mxGeometry relative="1" as="geometry" />
        </mxCell>
        <mxCell id="HWYvdIPogjPDE-Yno99K-27" value="正常规范数据新增" style="edgeLabel;html=1;align=center;verticalAlign=middle;resizable=0;points=[];" vertex="1" connectable="0" parent="HWYvdIPogjPDE-Yno99K-22">
          <mxGeometry x="-0.2526" y="2" relative="1" as="geometry">
            <mxPoint as="offset" />
          </mxGeometry>
        </mxCell>
        <mxCell id="HWYvdIPogjPDE-Yno99K-36" style="edgeStyle=orthogonalEdgeStyle;rounded=0;orthogonalLoop=1;jettySize=auto;html=1;exitX=1;exitY=1;exitDx=0;exitDy=0;entryX=0.5;entryY=0;entryDx=0;entryDy=0;" edge="1" parent="HWYvdIPogjPDE-Yno99K-3" source="HWYvdIPogjPDE-Yno99K-17" target="HWYvdIPogjPDE-Yno99K-40">
          <mxGeometry relative="1" as="geometry">
            <mxPoint x="600" y="385" as="targetPoint" />
          </mxGeometry>
        </mxCell>
        <mxCell id="HWYvdIPogjPDE-Yno99K-38" value="数据规范异常报警" style="edgeLabel;html=1;align=center;verticalAlign=middle;resizable=0;points=[];" vertex="1" connectable="0" parent="HWYvdIPogjPDE-Yno99K-36">
          <mxGeometry x="0.7783" relative="1" as="geometry">
            <mxPoint y="-12" as="offset" />
          </mxGeometry>
        </mxCell>
        <mxCell id="HWYvdIPogjPDE-Yno99K-45" style="edgeStyle=orthogonalEdgeStyle;rounded=0;orthogonalLoop=1;jettySize=auto;html=1;exitX=0;exitY=1;exitDx=0;exitDy=0;entryX=0;entryY=0.5;entryDx=0;entryDy=0;" edge="1" parent="HWYvdIPogjPDE-Yno99K-3" source="HWYvdIPogjPDE-Yno99K-17" target="HWYvdIPogjPDE-Yno99K-43">
          <mxGeometry relative="1" as="geometry">
            <Array as="points">
              <mxPoint x="280" y="380" />
              <mxPoint x="280" y="630" />
            </Array>
          </mxGeometry>
        </mxCell>
        <mxCell id="HWYvdIPogjPDE-Yno99K-46" value="无新增数据" style="edgeLabel;html=1;align=center;verticalAlign=middle;resizable=0;points=[];" vertex="1" connectable="0" parent="HWYvdIPogjPDE-Yno99K-45">
          <mxGeometry x="0.0425" y="1" relative="1" as="geometry">
            <mxPoint y="-1" as="offset" />
          </mxGeometry>
        </mxCell>
        <mxCell id="HWYvdIPogjPDE-Yno99K-17" value="报关新增判断" style="rhombus;whiteSpace=wrap;html=1;" vertex="1" parent="HWYvdIPogjPDE-Yno99K-3">
          <mxGeometry x="337.5" y="320" width="165" height="80" as="geometry" />
        </mxCell>
        <mxCell id="HWYvdIPogjPDE-Yno99K-19" style="edgeStyle=orthogonalEdgeStyle;rounded=0;orthogonalLoop=1;jettySize=auto;html=1;exitX=0.5;exitY=1;exitDx=0;exitDy=0;exitPerimeter=0;entryX=0;entryY=0.5;entryDx=0;entryDy=0;" edge="1" parent="HWYvdIPogjPDE-Yno99K-3" source="HWYvdIPogjPDE-Yno99K-9" target="HWYvdIPogjPDE-Yno99K-17">
          <mxGeometry relative="1" as="geometry" />
        </mxCell>
        <mxCell id="HWYvdIPogjPDE-Yno99K-44" value="" style="edgeStyle=orthogonalEdgeStyle;rounded=0;orthogonalLoop=1;jettySize=auto;html=1;" edge="1" parent="HWYvdIPogjPDE-Yno99K-3" source="HWYvdIPogjPDE-Yno99K-21" target="HWYvdIPogjPDE-Yno99K-43">
          <mxGeometry relative="1" as="geometry" />
        </mxCell>
        <mxCell id="HWYvdIPogjPDE-Yno99K-21" value="新增台账数据合并" style="whiteSpace=wrap;html=1;" vertex="1" parent="HWYvdIPogjPDE-Yno99K-3">
          <mxGeometry x="360" y="470" width="120" height="60" as="geometry" />
        </mxCell>
        <mxCell id="HWYvdIPogjPDE-Yno99K-26" value="" style="edgeStyle=orthogonalEdgeStyle;rounded=0;orthogonalLoop=1;jettySize=auto;html=1;" edge="1" parent="HWYvdIPogjPDE-Yno99K-3" source="HWYvdIPogjPDE-Yno99K-23" target="HWYvdIPogjPDE-Yno99K-17">
          <mxGeometry relative="1" as="geometry" />
        </mxCell>
        <mxCell id="HWYvdIPogjPDE-Yno99K-33" value="" style="edgeStyle=orthogonalEdgeStyle;rounded=0;orthogonalLoop=1;jettySize=auto;html=1;" edge="1" parent="HWYvdIPogjPDE-Yno99K-3" source="HWYvdIPogjPDE-Yno99K-23" target="HWYvdIPogjPDE-Yno99K-32">
          <mxGeometry relative="1" as="geometry" />
        </mxCell>
        <mxCell id="HWYvdIPogjPDE-Yno99K-23" value="台账数据抽取" style="rounded=0;whiteSpace=wrap;html=1;" vertex="1" parent="HWYvdIPogjPDE-Yno99K-3">
          <mxGeometry x="360" y="210" width="120" height="60" as="geometry" />
        </mxCell>
        <mxCell id="HWYvdIPogjPDE-Yno99K-32" value="临时台账数据备份" style="whiteSpace=wrap;html=1;rounded=0;" vertex="1" parent="HWYvdIPogjPDE-Yno99K-3">
          <mxGeometry x="540" y="210" width="120" height="60" as="geometry" />
        </mxCell>
        <mxCell id="HWYvdIPogjPDE-Yno99K-40" value="钉钉机器人预警" style="shape=parallelogram;perimeter=parallelogramPerimeter;whiteSpace=wrap;html=1;fixedSize=1;" vertex="1" parent="HWYvdIPogjPDE-Yno99K-3">
          <mxGeometry x="540" y="470" width="120" height="60" as="geometry" />
        </mxCell>
        <mxCell id="HWYvdIPogjPDE-Yno99K-54" value="" style="edgeStyle=orthogonalEdgeStyle;rounded=0;orthogonalLoop=1;jettySize=auto;html=1;" edge="1" parent="HWYvdIPogjPDE-Yno99K-3" source="HWYvdIPogjPDE-Yno99K-43" target="HWYvdIPogjPDE-Yno99K-53">
          <mxGeometry relative="1" as="geometry" />
        </mxCell>
        <mxCell id="HWYvdIPogjPDE-Yno99K-43" value="台账数据&amp;amp;发票数据&lt;br&gt;差值梯度匹配" style="whiteSpace=wrap;html=1;" vertex="1" parent="HWYvdIPogjPDE-Yno99K-3">
          <mxGeometry x="360" y="600" width="120" height="60" as="geometry" />
        </mxCell>
        <mxCell id="HWYvdIPogjPDE-Yno99K-49" style="edgeStyle=orthogonalEdgeStyle;rounded=0;orthogonalLoop=1;jettySize=auto;html=1;exitX=0.5;exitY=1;exitDx=0;exitDy=0;exitPerimeter=0;entryX=1;entryY=0.5;entryDx=0;entryDy=0;dashed=1;dashPattern=8 8;" edge="1" parent="HWYvdIPogjPDE-Yno99K-3" source="HWYvdIPogjPDE-Yno99K-48" target="HWYvdIPogjPDE-Yno99K-17">
          <mxGeometry relative="1" as="geometry" />
        </mxCell>
        <mxCell id="HWYvdIPogjPDE-Yno99K-48" value="手工报关数据" style="shape=cylinder3;whiteSpace=wrap;html=1;boundedLbl=1;backgroundOutline=1;size=15;fillColor=#f8cecc;strokeColor=#b85450;" vertex="1" parent="HWYvdIPogjPDE-Yno99K-3">
          <mxGeometry x="971" y="40" width="60" height="100" as="geometry" />
        </mxCell>
        <mxCell id="HWYvdIPogjPDE-Yno99K-61" style="edgeStyle=orthogonalEdgeStyle;rounded=0;orthogonalLoop=1;jettySize=auto;html=1;exitX=0.5;exitY=1;exitDx=0;exitDy=0;entryX=0;entryY=0.5;entryDx=0;entryDy=0;" edge="1" parent="HWYvdIPogjPDE-Yno99K-3" source="HWYvdIPogjPDE-Yno99K-53" target="HWYvdIPogjPDE-Yno99K-60">
          <mxGeometry relative="1" as="geometry" />
        </mxCell>
        <mxCell id="HWYvdIPogjPDE-Yno99K-67" style="edgeStyle=orthogonalEdgeStyle;rounded=0;orthogonalLoop=1;jettySize=auto;html=1;exitX=0.5;exitY=1;exitDx=0;exitDy=0;entryX=1;entryY=0.5;entryDx=0;entryDy=0;" edge="1" parent="HWYvdIPogjPDE-Yno99K-3" source="HWYvdIPogjPDE-Yno99K-53" target="HWYvdIPogjPDE-Yno99K-66">
          <mxGeometry relative="1" as="geometry" />
        </mxCell>
        <mxCell id="HWYvdIPogjPDE-Yno99K-53" value="台账发票数据认证时间匹配&lt;br&gt;PO与发票数据超用检验" style="whiteSpace=wrap;html=1;" vertex="1" parent="HWYvdIPogjPDE-Yno99K-3">
          <mxGeometry x="360" y="740" width="120" height="60" as="geometry" />
        </mxCell>
        <mxCell id="HWYvdIPogjPDE-Yno99K-55" style="edgeStyle=orthogonalEdgeStyle;rounded=0;orthogonalLoop=1;jettySize=auto;html=1;exitX=0.5;exitY=1;exitDx=0;exitDy=0;exitPerimeter=0;entryX=0;entryY=0.5;entryDx=0;entryDy=0;" edge="1" parent="HWYvdIPogjPDE-Yno99K-3" source="HWYvdIPogjPDE-Yno99K-8" target="HWYvdIPogjPDE-Yno99K-43">
          <mxGeometry relative="1" as="geometry" />
        </mxCell>
        <mxCell id="HWYvdIPogjPDE-Yno99K-56" style="edgeStyle=orthogonalEdgeStyle;rounded=0;orthogonalLoop=1;jettySize=auto;html=1;exitX=0.5;exitY=1;exitDx=0;exitDy=0;exitPerimeter=0;entryX=0;entryY=0.5;entryDx=0;entryDy=0;" edge="1" parent="HWYvdIPogjPDE-Yno99K-3" source="HWYvdIPogjPDE-Yno99K-7" target="HWYvdIPogjPDE-Yno99K-53">
          <mxGeometry relative="1" as="geometry" />
        </mxCell>
        <mxCell id="HWYvdIPogjPDE-Yno99K-58" style="edgeStyle=orthogonalEdgeStyle;rounded=0;orthogonalLoop=1;jettySize=auto;html=1;exitX=0.5;exitY=1;exitDx=0;exitDy=0;exitPerimeter=0;entryX=1;entryY=0.5;entryDx=0;entryDy=0;" edge="1" parent="HWYvdIPogjPDE-Yno99K-3" source="HWYvdIPogjPDE-Yno99K-57" target="HWYvdIPogjPDE-Yno99K-53">
          <mxGeometry relative="1" as="geometry" />
        </mxCell>
        <mxCell id="HWYvdIPogjPDE-Yno99K-62" style="edgeStyle=orthogonalEdgeStyle;rounded=0;orthogonalLoop=1;jettySize=auto;html=1;exitX=0.5;exitY=1;exitDx=0;exitDy=0;exitPerimeter=0;entryX=1;entryY=0.5;entryDx=0;entryDy=0;" edge="1" parent="HWYvdIPogjPDE-Yno99K-3" source="HWYvdIPogjPDE-Yno99K-57" target="HWYvdIPogjPDE-Yno99K-60">
          <mxGeometry relative="1" as="geometry" />
        </mxCell>
        <mxCell id="HWYvdIPogjPDE-Yno99K-57" value="系统PO数据" style="shape=cylinder3;whiteSpace=wrap;html=1;boundedLbl=1;backgroundOutline=1;size=15;fillColor=#d5e8d4;strokeColor=#82b366;" vertex="1" parent="HWYvdIPogjPDE-Yno99K-3">
          <mxGeometry x="870" y="40" width="60" height="100" as="geometry" />
        </mxCell>
        <mxCell id="HWYvdIPogjPDE-Yno99K-60" value="PO剩余可用池录入&lt;br&gt;(PO可用池)" style="rounded=0;whiteSpace=wrap;html=1;" vertex="1" parent="HWYvdIPogjPDE-Yno99K-3">
          <mxGeometry x="550" y="920" width="120" height="60" as="geometry" />
        </mxCell>
        <mxCell id="HWYvdIPogjPDE-Yno99K-64" value="" style="edgeStyle=orthogonalEdgeStyle;rounded=0;orthogonalLoop=1;jettySize=auto;html=1;" edge="1" parent="HWYvdIPogjPDE-Yno99K-3" source="HWYvdIPogjPDE-Yno99K-63" target="HWYvdIPogjPDE-Yno99K-60">
          <mxGeometry relative="1" as="geometry" />
        </mxCell>
        <mxCell id="HWYvdIPogjPDE-Yno99K-63" value="PO剩余可用池清空" style="rounded=0;whiteSpace=wrap;html=1;" vertex="1" parent="HWYvdIPogjPDE-Yno99K-3">
          <mxGeometry x="550" y="810" width="120" height="60" as="geometry" />
        </mxCell>
        <mxCell id="HWYvdIPogjPDE-Yno99K-68" value="" style="edgeStyle=orthogonalEdgeStyle;rounded=0;orthogonalLoop=1;jettySize=auto;html=1;" edge="1" parent="HWYvdIPogjPDE-Yno99K-3" source="HWYvdIPogjPDE-Yno99K-65" target="HWYvdIPogjPDE-Yno99K-66">
          <mxGeometry relative="1" as="geometry" />
        </mxCell>
        <mxCell id="HWYvdIPogjPDE-Yno99K-65" value="历史台账数据清空" style="rounded=0;whiteSpace=wrap;html=1;" vertex="1" parent="HWYvdIPogjPDE-Yno99K-3">
          <mxGeometry x="200" y="820" width="120" height="60" as="geometry" />
        </mxCell>
        <mxCell id="HWYvdIPogjPDE-Yno99K-72" style="edgeStyle=orthogonalEdgeStyle;rounded=0;orthogonalLoop=1;jettySize=auto;html=1;exitX=0;exitY=0.5;exitDx=0;exitDy=0;entryX=0;entryY=0.5;entryDx=0;entryDy=0;fillColor=#f8cecc;strokeColor=#b85450;" edge="1" parent="HWYvdIPogjPDE-Yno99K-3" source="HWYvdIPogjPDE-Yno99K-66" target="HWYvdIPogjPDE-Yno99K-10">
          <mxGeometry relative="1" as="geometry">
            <Array as="points">
              <mxPoint x="160" y="950" />
              <mxPoint x="160" y="160" />
            </Array>
          </mxGeometry>
        </mxCell>
        <mxCell id="HWYvdIPogjPDE-Yno99K-66" value="最新合并台账录入&lt;br&gt;(standingbook0806)" style="rounded=0;whiteSpace=wrap;html=1;" vertex="1" parent="HWYvdIPogjPDE-Yno99K-3">
          <mxGeometry x="200" y="920" width="120" height="60" as="geometry" />
        </mxCell>
        <mxCell id="HWYvdIPogjPDE-Yno99K-4" value="支持操作" style="swimlane;startSize=20;" vertex="1" parent="HWYvdIPogjPDE-Yno99K-1">
          <mxGeometry x="1470" width="340" height="1070" as="geometry" />
        </mxCell>
        <mxCell id="HWYvdIPogjPDE-Yno99K-50" value="" style="shape=actor;whiteSpace=wrap;html=1;" vertex="1" parent="HWYvdIPogjPDE-Yno99K-4">
          <mxGeometry x="160" y="60" width="40" height="60" as="geometry" />
        </mxCell>
        <mxCell id="HWYvdIPogjPDE-Yno99K-75" style="edgeStyle=orthogonalEdgeStyle;rounded=0;orthogonalLoop=1;jettySize=auto;html=1;exitX=0.5;exitY=0;exitDx=0;exitDy=0;entryX=0.5;entryY=1;entryDx=0;entryDy=0;" edge="1" parent="HWYvdIPogjPDE-Yno99K-4" source="HWYvdIPogjPDE-Yno99K-73" target="HWYvdIPogjPDE-Yno99K-50">
          <mxGeometry relative="1" as="geometry" />
        </mxCell>
        <mxCell id="HWYvdIPogjPDE-Yno99K-73" value="" style="shape=actor;whiteSpace=wrap;html=1;" vertex="1" parent="HWYvdIPogjPDE-Yno99K-4">
          <mxGeometry x="160" y="470" width="40" height="60" as="geometry" />
        </mxCell>
        <mxCell id="HWYvdIPogjPDE-Yno99K-13" style="edgeStyle=orthogonalEdgeStyle;rounded=0;orthogonalLoop=1;jettySize=auto;html=1;exitX=0.9;exitY=0.5;exitDx=0;exitDy=0;exitPerimeter=0;" edge="1" parent="HWYvdIPogjPDE-Yno99K-1" source="HWYvdIPogjPDE-Yno99K-12" target="HWYvdIPogjPDE-Yno99K-7">
          <mxGeometry relative="1" as="geometry" />
        </mxCell>
        <mxCell id="HWYvdIPogjPDE-Yno99K-14" value="更新操作" style="edgeLabel;html=1;align=center;verticalAlign=middle;resizable=0;points=[];" vertex="1" connectable="0" parent="HWYvdIPogjPDE-Yno99K-13">
          <mxGeometry x="-0.2701" relative="1" as="geometry">
            <mxPoint as="offset" />
          </mxGeometry>
        </mxCell>
        <mxCell id="HWYvdIPogjPDE-Yno99K-51" style="edgeStyle=orthogonalEdgeStyle;rounded=0;orthogonalLoop=1;jettySize=auto;html=1;exitX=0.1;exitY=0.5;exitDx=0;exitDy=0;exitPerimeter=0;entryX=1;entryY=0.5;entryDx=0;entryDy=0;entryPerimeter=0;" edge="1" parent="HWYvdIPogjPDE-Yno99K-1" source="HWYvdIPogjPDE-Yno99K-50" target="HWYvdIPogjPDE-Yno99K-48">
          <mxGeometry relative="1" as="geometry" />
        </mxCell>
        <mxCell id="HWYvdIPogjPDE-Yno99K-52" value="更新操作" style="edgeLabel;html=1;align=center;verticalAlign=middle;resizable=0;points=[];" vertex="1" connectable="0" parent="HWYvdIPogjPDE-Yno99K-51">
          <mxGeometry x="-0.1796" y="1" relative="1" as="geometry">
            <mxPoint x="-1" as="offset" />
          </mxGeometry>
        </mxCell>
        <mxCell id="HWYvdIPogjPDE-Yno99K-70" style="edgeStyle=orthogonalEdgeStyle;rounded=0;orthogonalLoop=1;jettySize=auto;html=1;exitX=0.9;exitY=0.5;exitDx=0;exitDy=0;exitPerimeter=0;entryX=0;entryY=0.5;entryDx=0;entryDy=0;" edge="1" parent="HWYvdIPogjPDE-Yno99K-1" source="HWYvdIPogjPDE-Yno99K-69" target="HWYvdIPogjPDE-Yno99K-66">
          <mxGeometry relative="1" as="geometry" />
        </mxCell>
        <mxCell id="HWYvdIPogjPDE-Yno99K-71" value="按需调整" style="edgeLabel;html=1;align=center;verticalAlign=middle;resizable=0;points=[];" vertex="1" connectable="0" parent="HWYvdIPogjPDE-Yno99K-70">
          <mxGeometry x="-0.6269" y="2" relative="1" as="geometry">
            <mxPoint as="offset" />
          </mxGeometry>
        </mxCell>
        <mxCell id="HWYvdIPogjPDE-Yno99K-74" style="edgeStyle=orthogonalEdgeStyle;rounded=0;orthogonalLoop=1;jettySize=auto;html=1;exitX=1;exitY=0.5;exitDx=0;exitDy=0;entryX=0.1;entryY=0.5;entryDx=0;entryDy=0;entryPerimeter=0;" edge="1" parent="HWYvdIPogjPDE-Yno99K-1" source="HWYvdIPogjPDE-Yno99K-40" target="HWYvdIPogjPDE-Yno99K-73">
          <mxGeometry relative="1" as="geometry" />
        </mxCell>
      </root>
    </mxGraphModel>
  </diagram>
</mxfile>
